<svg width="1200" height="304" viewBox="0 0 1200 304" fill="none" xmlns="http://www.w3.org/2000/svg">
<g clip-path="url(#clip0_9107_10724)">
<rect width="1200" height="304" rx="16" fill="#FCFCFF"/>
<path fill-rule="evenodd" clip-rule="evenodd" d="M170.737 170.887L170.726 170.899C162.213 179.782 151.96 186.792 140.008 191.941L139.997 191.945L139.986 191.95C128.156 196.941 115.343 199.419 101.582 199.419C87.4598 199.419 74.1222 196.85 61.5983 191.693L61.5907 191.69L61.5831 191.686C49.2942 186.551 38.5306 179.565 29.3211 170.724L29.298 170.702L29.2753 170.679C20.2501 161.654 13.0776 151.071 7.75542 138.959L7.74736 138.94L7.73954 138.922C2.57179 126.741 0 113.659 0 99.7097C0 85.7604 2.57179 72.6786 7.73954 60.4975L7.74736 60.4791L7.75542 60.4607C13.0778 48.3478 20.2529 37.8489 29.2866 28.9966C38.3257 19.9604 49.0131 12.8744 61.3156 7.73299C73.6655 2.57183 86.8301 0 100.78 0C116.738 0 131.979 3.30377 146.473 9.90605C161.012 16.3502 172.857 25.5898 181.934 37.6306L183.697 39.9688L146.572 72.1848L144.55 69.49C138.933 62.0004 132.353 56.4547 124.816 52.77L124.803 52.7638L124.791 52.7575C117.396 49.0599 109.407 47.2034 100.78 47.2034C94.084 47.2034 87.8482 48.5382 82.0362 51.1924C76.3604 53.8658 71.4461 57.5323 67.2726 62.2066L67.2537 62.2278L67.2344 62.2486C63.0966 66.7175 59.8242 72.2251 57.452 78.8333L57.4476 78.8456L57.4431 78.8579C55.0848 85.2588 53.8912 92.2006 53.8912 99.7097C53.8912 107.387 55.0817 114.501 57.4354 121.075C59.9755 127.495 63.4235 133.026 67.7664 137.703C72.1168 142.388 77.2128 146.066 83.076 148.748C89.0744 151.412 95.4995 152.751 102.385 152.751C112.281 152.751 120.69 149.998 127.762 144.571L127.775 144.561L127.789 144.55C133.918 139.954 138.249 134.358 140.848 127.725H95.2354V82.6621H197.814V98.9072C197.814 113.173 195.435 126.491 190.646 138.832C185.874 151.13 179.246 161.823 170.748 170.876L170.737 170.887ZM145.187 124.589C144.894 125.656 144.564 126.702 144.197 127.725C141.439 135.421 136.597 141.865 129.671 147.06C122.003 152.945 112.907 155.888 102.385 155.888C95.0728 155.888 88.2066 154.461 81.7862 151.608C75.5442 148.754 70.1047 144.831 65.4678 139.837C60.8309 134.843 57.1748 128.958 54.4997 122.181C52.0029 115.226 50.7545 107.735 50.7545 99.7097C50.7545 91.8626 52.0029 84.5505 54.4997 77.7735C56.9965 70.8181 60.4742 64.9328 64.9328 60.1175C69.3913 55.1239 74.6525 51.2003 80.7161 48.3468C86.9582 45.4933 93.646 44.0666 100.78 44.0666C109.875 44.0666 118.347 46.0284 126.194 49.9519C133.354 53.4525 139.663 58.5148 145.119 65.1387C145.779 65.9389 146.425 66.762 147.06 67.6079L179.429 39.5188C170.69 27.9265 159.276 19.0093 145.187 12.7673C131.098 6.34696 116.296 3.13678 100.78 3.13678C87.2257 3.13678 74.4741 5.63359 62.5251 10.6272C50.5761 15.6208 40.2322 22.487 31.4934 31.2259C22.7546 39.7863 15.7992 49.9519 10.6272 61.7226C5.63359 73.4932 3.13678 86.1556 3.13678 99.7097C3.13678 113.264 5.63359 125.926 10.6272 137.697C15.7992 149.468 22.7546 159.722 31.4934 168.461C40.4105 177.022 50.8436 183.799 62.7926 188.792C74.92 193.786 87.8499 196.283 101.582 196.283C114.958 196.283 127.353 193.875 138.767 189.06C150.359 184.066 160.257 177.289 168.461 168.729C176.665 159.99 183.085 149.646 187.722 137.697C192.359 125.748 194.678 112.818 194.678 98.9072V85.7989H98.3721V124.589H145.187ZM213.655 196.477V2.94266H265.941V196.477H213.655ZM343.209 196.477L268.836 2.94266H325.375L372.674 136.147L420.74 2.94266H475.419L399.94 196.477H343.209ZM372.65 145.455L323.16 6.07944H273.402L345.364 193.34H397.797L470.828 6.07944H422.943L372.65 145.455ZM216.791 193.34H262.804V6.07944H216.791V193.34ZM170.726 400.07L170.737 400.058L170.748 400.047C179.246 390.994 185.874 380.301 190.646 368.003C195.435 355.662 197.814 342.344 197.814 328.078V311.833H95.2354V356.896H140.848C138.249 363.529 133.918 369.125 127.789 373.721L127.775 373.732L127.762 373.742C120.69 379.169 112.281 381.922 102.385 381.922C95.4995 381.922 89.0744 380.582 83.076 377.919C77.2128 375.237 72.1168 371.559 67.7664 366.874C63.4235 362.196 59.9755 356.666 57.4354 350.246C55.0817 343.672 53.8912 336.558 53.8912 328.881C53.8912 321.372 55.0848 314.43 57.4431 308.029L57.4476 308.017L57.452 308.004C59.8242 301.396 63.0966 295.888 67.2344 291.42L67.2537 291.399L67.2726 291.378C71.4461 286.703 76.3604 283.037 82.0362 280.363C87.8482 277.709 94.084 276.374 100.78 276.374C109.407 276.374 117.396 278.231 124.791 281.929L124.803 281.935L124.816 281.941C132.353 285.626 138.933 291.171 144.55 298.661L146.572 301.356L183.697 269.14L181.934 266.802C172.857 254.761 161.012 245.521 146.473 239.077C131.979 232.475 116.738 229.171 100.78 229.171C86.8301 229.171 73.6655 231.743 61.3156 236.904C49.0131 242.045 38.3257 249.131 29.2866 258.168C20.2529 267.02 13.0778 277.519 7.75542 289.632L7.74736 289.65L7.73954 289.668C2.57179 301.85 0 314.931 0 328.881C0 342.83 2.57179 355.912 7.73954 368.093L7.74736 368.111L7.75542 368.13C13.0776 380.242 20.2501 390.825 29.2753 399.85L29.298 399.873L29.3211 399.895C38.5306 408.736 49.2942 415.722 61.5831 420.857L61.5907 420.861L61.5983 420.864C74.1222 426.021 87.4598 428.59 101.582 428.59C115.343 428.59 128.156 426.112 139.986 421.121L139.997 421.116L140.008 421.112C151.96 415.963 162.213 408.953 170.726 400.07ZM144.197 356.896C144.564 355.873 144.894 354.827 145.187 353.76H98.3721V314.97H194.678V328.078C194.678 341.989 192.359 354.919 187.722 366.868C183.085 378.817 176.665 389.161 168.461 397.9C160.257 406.46 150.359 413.237 138.767 418.231C127.353 423.046 114.958 425.454 101.582 425.454C87.8499 425.454 74.92 422.957 62.7926 417.963C50.8436 412.97 40.4105 406.193 31.4934 397.632C22.7546 388.893 15.7992 378.638 10.6272 366.868C5.63359 355.097 3.13678 342.435 3.13678 328.881C3.13678 315.327 5.63359 302.664 10.6272 290.894C15.7992 279.123 22.7546 268.957 31.4934 260.397C40.2322 251.658 50.5761 244.792 62.5251 239.798C74.4741 234.805 87.2257 232.308 100.78 232.308C116.296 232.308 131.098 235.518 145.187 241.938C159.276 248.18 170.69 257.097 179.429 268.69L147.06 296.779C146.425 295.933 145.779 295.11 145.119 294.31C139.663 287.686 133.354 282.624 126.194 279.123C118.347 275.199 109.875 273.238 100.78 273.238C93.646 273.238 86.9582 274.664 80.7161 277.518C74.6525 280.371 69.3913 284.295 64.9328 289.288C60.4742 294.104 56.9965 299.989 54.4997 306.944C52.0029 313.721 50.7545 321.034 50.7545 328.881C50.7545 336.906 52.0029 344.397 54.4997 351.352C57.1748 358.129 60.8309 364.014 65.4678 369.008C70.1047 374.002 75.5442 377.925 81.7862 380.779C88.2066 383.632 95.0728 385.059 102.385 385.059C112.907 385.059 122.003 382.116 129.671 376.231C136.597 371.036 141.439 364.592 144.197 356.896ZM265.941 232.114H213.655V425.648H265.941V232.114ZM325.375 232.114H268.836L343.209 425.648H399.94L475.419 232.114H420.74L372.674 365.318L325.375 232.114ZM323.16 235.25L372.65 374.626L422.943 235.25H470.828L397.797 422.511H345.364L273.402 235.25H323.16ZM262.804 422.511H216.791V235.25H262.804V422.511ZM652.253 400.07L652.264 400.058L652.275 400.047C660.773 390.994 667.401 380.301 672.174 368.003C676.962 355.662 679.341 342.344 679.341 328.078V311.833H576.762V356.896H622.375C619.776 363.529 615.445 369.125 609.316 373.721L609.302 373.732L609.289 373.742C602.217 379.169 593.808 381.922 583.912 381.922C577.027 381.922 570.601 380.582 564.603 377.919C558.74 375.237 553.644 371.559 549.293 366.874C544.951 362.196 541.503 356.666 538.962 350.246C536.609 343.672 535.418 336.558 535.418 328.881C535.418 321.372 536.612 314.43 538.97 308.029L538.975 308.017L538.979 308.004C541.351 301.396 544.624 295.888 548.761 291.42L548.781 291.399L548.8 291.378C552.973 286.703 557.887 283.037 563.563 280.363C569.375 277.709 575.611 276.374 582.307 276.374C590.934 276.374 598.923 278.231 606.318 281.929L606.33 281.935L606.343 281.941C613.88 285.626 620.46 291.171 626.077 298.661L628.099 301.356L665.224 269.14L663.461 266.802C654.384 254.761 642.539 245.521 628 239.077C613.506 232.475 598.265 229.171 582.307 229.171C568.357 229.171 555.193 231.743 542.843 236.904C530.54 242.045 519.853 249.131 510.814 258.168C501.78 267.02 494.605 277.519 489.282 289.632L489.274 289.65L489.267 289.668C484.099 301.85 481.527 314.931 481.527 328.881C481.527 342.83 484.099 355.912 489.267 368.093L489.274 368.111L489.282 368.13C494.605 380.242 501.777 390.825 510.802 399.85L510.825 399.873L510.848 399.895C520.058 408.736 530.821 415.722 543.11 420.857L543.118 420.861L543.125 420.864C555.649 426.021 568.987 428.59 583.109 428.59C596.87 428.59 609.683 426.112 621.513 421.121L621.524 421.116L621.535 421.112C633.487 415.963 643.74 408.953 652.253 400.07ZM625.724 356.896C626.091 355.873 626.421 354.827 626.714 353.76H579.899V314.97H676.205V328.078C676.205 341.989 673.886 354.919 669.249 366.868C664.612 378.817 658.192 389.161 649.988 397.9C641.784 406.46 631.886 413.237 620.294 418.231C608.88 423.046 596.485 425.454 583.109 425.454C569.377 425.454 556.447 422.957 544.32 417.963C532.371 412.97 521.938 406.193 513.02 397.632C504.282 388.893 497.326 378.638 492.154 366.868C487.161 355.097 484.664 342.435 484.664 328.881C484.664 315.327 487.161 302.664 492.154 290.894C497.326 279.123 504.282 268.957 513.02 260.397C521.759 251.658 532.103 244.792 544.052 239.798C556.001 234.805 568.753 232.308 582.307 232.308C597.823 232.308 612.625 235.518 626.714 241.938C640.803 248.18 652.217 257.097 660.956 268.69L628.587 296.779C627.953 295.933 627.306 295.11 626.646 294.31C621.19 287.686 614.881 282.624 607.721 279.123C599.874 275.199 591.402 273.238 582.307 273.238C575.173 273.238 568.485 274.664 562.243 277.518C556.18 280.371 550.918 284.295 546.46 289.288C542.001 294.104 538.523 299.989 536.027 306.944C533.53 313.721 532.281 321.034 532.281 328.881C532.281 336.906 533.53 344.397 536.027 351.352C538.702 358.129 542.358 364.014 546.995 369.008C551.632 374.002 557.071 377.925 563.313 380.779C569.734 383.632 576.6 385.059 583.912 385.059C594.434 385.059 603.53 382.116 611.198 376.231C618.124 371.036 622.966 364.592 625.724 356.896ZM747.468 232.114H695.182V425.648H747.468V232.114ZM806.902 232.114H750.363L824.736 425.648H881.467L956.946 232.114H902.267L854.201 365.318L806.902 232.114ZM804.687 235.25L854.177 374.626L904.47 235.25H952.355L879.324 422.511H826.891L754.929 235.25H804.687ZM744.331 422.511H698.318V235.25H744.331V422.511ZM1133.79 400.058L1133.78 400.07C1125.27 408.953 1115.01 415.963 1103.06 421.112L1103.05 421.116L1103.04 421.121C1091.21 426.112 1078.4 428.59 1064.64 428.59C1050.51 428.59 1037.18 426.021 1024.65 420.864L1024.64 420.861L1024.64 420.857C1012.35 415.722 1001.58 408.736 992.375 399.895L992.352 399.873L992.33 399.85C983.304 390.825 976.132 380.242 970.81 368.13L970.802 368.111L970.794 368.093C965.626 355.912 963.054 342.83 963.054 328.881C963.054 314.931 965.626 301.85 970.794 289.668L970.802 289.65L970.81 289.632C976.132 277.519 983.307 267.02 992.341 258.168C1001.38 249.131 1012.07 242.045 1024.37 236.904C1036.72 231.743 1049.88 229.171 1063.83 229.171C1079.79 229.171 1095.03 232.475 1109.53 239.077C1124.07 245.521 1135.91 254.761 1144.99 266.802L1146.75 269.14L1109.63 301.356L1107.6 298.661C1101.99 291.171 1095.41 285.626 1087.87 281.941L1087.86 281.935L1087.85 281.929C1080.45 278.231 1072.46 276.374 1063.83 276.374C1057.14 276.374 1050.9 277.709 1045.09 280.363C1039.41 283.037 1034.5 286.703 1030.33 291.378L1030.31 291.399L1030.29 291.42C1026.15 295.888 1022.88 301.396 1020.51 308.004L1020.5 308.017L1020.5 308.029C1018.14 314.43 1016.95 321.372 1016.95 328.881C1016.95 336.558 1018.14 343.672 1020.49 350.246C1023.03 356.666 1026.48 362.196 1030.82 366.874C1035.17 371.559 1040.27 375.237 1046.13 377.919C1052.13 380.582 1058.55 381.922 1065.44 381.922C1075.34 381.922 1083.74 379.169 1090.82 373.742L1090.83 373.732L1090.84 373.721C1096.97 369.125 1101.3 363.529 1103.9 356.896H1058.29V311.833H1160.87V328.078C1160.87 342.344 1158.49 355.662 1153.7 368.003C1148.93 380.301 1142.3 390.994 1133.8 400.047L1133.79 400.058ZM1108.24 353.76C1107.95 354.827 1107.62 355.873 1107.25 356.896C1104.49 364.592 1099.65 371.036 1092.73 376.231C1085.06 382.116 1075.96 385.059 1065.44 385.059C1058.13 385.059 1051.26 383.632 1044.84 380.779C1038.6 377.925 1033.16 374.002 1028.52 369.008C1023.89 364.014 1020.23 358.129 1017.55 351.352C1015.06 344.397 1013.81 336.906 1013.81 328.881C1013.81 321.034 1015.06 313.721 1017.55 306.944C1020.05 299.989 1023.53 294.104 1027.99 289.288C1032.45 284.295 1037.71 280.371 1043.77 277.518C1050.01 274.664 1056.7 273.238 1063.83 273.238C1072.93 273.238 1081.4 275.199 1089.25 279.123C1096.41 282.624 1102.72 287.686 1108.17 294.31C1108.83 295.11 1109.48 295.933 1110.11 296.779L1142.48 268.69C1133.74 257.097 1122.33 248.18 1108.24 241.938C1094.15 235.518 1079.35 232.308 1063.83 232.308C1050.28 232.308 1037.53 234.805 1025.58 239.798C1013.63 244.792 1003.29 251.658 994.548 260.397C985.809 268.957 978.853 279.123 973.681 290.894C968.688 302.664 966.191 315.327 966.191 328.881C966.191 342.435 968.688 355.097 973.681 366.868C978.853 378.638 985.809 388.893 994.548 397.632C1003.46 406.193 1013.9 412.97 1025.85 417.963C1037.97 422.957 1050.9 425.454 1064.64 425.454C1078.01 425.454 1090.41 423.046 1101.82 418.231C1113.41 413.237 1123.31 406.46 1131.52 397.9C1139.72 389.161 1146.14 378.817 1150.78 366.868C1155.41 354.919 1157.73 341.989 1157.73 328.078V314.97H1061.43V353.76H1108.24ZM1176.71 232.114H1228.99V425.648H1176.71V232.114ZM1231.89 232.114H1288.43L1335.73 365.318L1383.79 232.114H1438.47L1362.99 425.648H1306.26L1231.89 232.114ZM1335.7 374.626L1286.21 235.25H1236.46L1308.42 422.511H1360.85L1433.88 235.25H1386L1335.7 374.626ZM1179.85 422.511H1225.86V235.25H1179.85V422.511ZM1615.31 400.07L1615.32 400.058L1615.33 400.047C1623.83 390.994 1630.46 380.301 1635.23 368.003C1640.02 355.662 1642.4 342.344 1642.4 328.078V311.833H1539.82V356.896H1585.43C1582.83 363.529 1578.5 369.125 1572.37 373.721L1572.36 373.732L1572.34 373.742C1565.27 379.169 1556.86 381.922 1546.97 381.922C1540.08 381.922 1533.66 380.582 1527.66 377.919C1521.79 375.237 1516.7 371.559 1512.35 366.874C1508 362.196 1504.56 356.666 1502.02 350.246C1499.66 343.672 1498.47 336.558 1498.47 328.881C1498.47 321.372 1499.67 314.43 1502.02 308.029L1502.03 308.017L1502.03 308.004C1504.41 301.396 1507.68 295.888 1511.82 291.42L1511.84 291.399L1511.85 291.378C1516.03 286.703 1520.94 283.037 1526.62 280.363C1532.43 277.709 1538.67 276.374 1545.36 276.374C1553.99 276.374 1561.98 278.231 1569.37 281.929L1569.38 281.935L1569.4 281.941C1576.93 285.626 1583.51 291.171 1589.13 298.661L1591.15 301.356L1628.28 269.14L1626.52 266.802C1617.44 254.761 1605.59 245.521 1591.05 239.077C1576.56 232.475 1561.32 229.171 1545.36 229.171C1531.41 229.171 1518.25 231.743 1505.9 236.904C1493.59 242.045 1482.91 249.131 1473.87 258.168C1464.83 267.02 1457.66 277.519 1452.34 289.632L1452.33 289.65L1452.32 289.668C1447.15 301.85 1444.58 314.931 1444.58 328.881C1444.58 342.83 1447.15 355.912 1452.32 368.093L1452.33 368.111L1452.34 368.13C1457.66 380.242 1464.83 390.825 1473.86 399.85L1473.88 399.873L1473.9 399.895C1483.11 408.736 1493.88 415.722 1506.16 420.857L1506.17 420.861L1506.18 420.864C1518.7 426.021 1532.04 428.59 1546.16 428.59C1559.92 428.59 1572.74 426.112 1584.57 421.121L1584.58 421.116L1584.59 421.112C1596.54 415.963 1606.79 408.953 1615.31 400.07ZM1588.78 356.896C1589.15 355.873 1589.48 354.827 1589.77 353.76H1542.95V314.97H1639.26V328.078C1639.26 341.989 1636.94 354.919 1632.3 366.868C1627.67 378.817 1621.25 389.161 1613.04 397.9C1604.84 406.46 1594.94 413.237 1583.35 418.231C1571.93 423.046 1559.54 425.454 1546.16 425.454C1532.43 425.454 1519.5 422.957 1507.37 417.963C1495.43 412.97 1484.99 406.193 1476.07 397.632C1467.34 388.893 1460.38 378.638 1455.21 366.868C1450.21 355.097 1447.72 342.435 1447.72 328.881C1447.72 315.327 1450.21 302.664 1455.21 290.894C1460.38 279.123 1467.34 268.957 1476.07 260.397C1484.81 251.658 1495.16 244.792 1507.11 239.798C1519.06 234.805 1531.81 232.308 1545.36 232.308C1560.88 232.308 1575.68 235.518 1589.77 241.938C1603.86 248.18 1615.27 257.097 1624.01 268.69L1591.64 296.779C1591.01 295.933 1590.36 295.11 1589.7 294.31C1584.24 287.686 1577.94 282.624 1570.78 279.123C1562.93 275.199 1554.46 273.238 1545.36 273.238C1538.23 273.238 1531.54 274.664 1525.3 277.518C1519.23 280.371 1513.97 284.295 1509.51 289.288C1505.06 294.104 1501.58 299.989 1499.08 306.944C1496.58 313.721 1495.34 321.034 1495.34 328.881C1495.34 336.906 1496.58 344.397 1499.08 351.352C1501.76 358.129 1505.41 364.014 1510.05 369.008C1514.69 374.002 1520.13 377.925 1526.37 380.779C1532.79 383.632 1539.65 385.059 1546.97 385.059C1557.49 385.059 1566.58 382.116 1574.25 376.231C1581.18 371.036 1586.02 364.592 1588.78 356.896ZM1710.52 232.114H1658.24V425.648H1710.52V232.114ZM1769.96 232.114H1713.42L1787.79 425.648H1844.52L1920 232.114H1865.32L1817.26 365.318L1769.96 232.114ZM1767.74 235.25L1817.23 374.626L1867.52 235.25H1915.41L1842.38 422.511H1789.95L1717.98 235.25H1767.74ZM1707.39 422.511H1661.37V235.25H1707.39V422.511ZM652.253 170.899L652.264 170.887L652.275 170.876C660.773 161.823 667.401 151.13 672.174 138.832C676.962 126.491 679.341 113.173 679.341 98.9072V82.6621H576.762V127.725H622.375C619.776 134.358 615.445 139.954 609.316 144.55L609.302 144.561L609.289 144.571C602.217 149.998 593.808 152.751 583.912 152.751C577.027 152.751 570.601 151.412 564.603 148.748C558.74 146.066 553.644 142.388 549.293 137.703C544.951 133.026 541.503 127.495 538.962 121.075C536.609 114.501 535.418 107.387 535.418 99.7097C535.418 92.2006 536.612 85.2588 538.97 78.8579L538.975 78.8456L538.979 78.8333C541.351 72.2251 544.624 66.7175 548.761 62.2486L548.781 62.2278L548.8 62.2066C552.973 57.5323 557.887 53.8658 563.563 51.1924C569.375 48.5382 575.611 47.2034 582.307 47.2034C590.934 47.2034 598.923 49.0599 606.318 52.7575L606.33 52.7638L606.343 52.77C613.88 56.4547 620.46 62.0004 626.077 69.49L628.099 72.1848L665.224 39.9688L663.461 37.6306C654.384 25.5898 642.539 16.3502 628 9.90605C613.506 3.30377 598.265 0 582.307 0C568.357 0 555.193 2.57183 542.843 7.73299C530.54 12.8744 519.853 19.9604 510.814 28.9966C501.78 37.8489 494.605 48.3478 489.282 60.4607L489.274 60.4791L489.267 60.4975C484.099 72.6786 481.527 85.7604 481.527 99.7097C481.527 113.659 484.099 126.741 489.267 138.922L489.274 138.94L489.282 138.959C494.605 151.071 501.777 161.654 510.802 170.679L510.825 170.702L510.848 170.724C520.058 179.565 530.821 186.551 543.11 191.686L543.118 191.69L543.125 191.693C555.649 196.85 568.987 199.419 583.109 199.419C596.87 199.419 609.683 196.941 621.513 191.95L621.524 191.945L621.535 191.941C633.487 186.792 643.74 179.782 652.253 170.899ZM625.724 127.725C626.091 126.702 626.421 125.656 626.714 124.589H579.899V85.7989H676.205V98.9072C676.205 112.818 673.886 125.748 669.249 137.697C664.612 149.646 658.192 159.99 649.988 168.729C641.784 177.289 631.886 184.066 620.294 189.06C608.88 193.875 596.485 196.283 583.109 196.283C569.377 196.283 556.447 193.786 544.32 188.792C532.371 183.799 521.938 177.022 513.02 168.461C504.282 159.722 497.326 149.468 492.154 137.697C487.161 125.926 484.664 113.264 484.664 99.7097C484.664 86.1556 487.161 73.4932 492.154 61.7226C497.326 49.9519 504.282 39.7863 513.02 31.2259C521.759 22.487 532.103 15.6208 544.052 10.6272C556.001 5.63359 568.753 3.13678 582.307 3.13678C597.823 3.13678 612.625 6.34696 626.714 12.7673C640.803 19.0093 652.217 27.9265 660.956 39.5188L628.587 67.6079C627.953 66.762 627.306 65.9389 626.646 65.1387C621.19 58.5148 614.881 53.4525 607.721 49.9519C599.874 46.0284 591.402 44.0666 582.307 44.0666C575.173 44.0666 568.485 45.4933 562.243 48.3468C556.18 51.2003 550.918 55.1239 546.46 60.1175C542.001 64.9328 538.523 70.8181 536.027 77.7735C533.53 84.5505 532.281 91.8626 532.281 99.7097C532.281 107.735 533.53 115.226 536.027 122.181C538.702 128.958 542.358 134.843 546.995 139.837C551.632 144.831 557.071 148.754 563.313 151.608C569.734 154.461 576.6 155.888 583.912 155.888C594.434 155.888 603.53 152.945 611.198 147.06C618.124 141.865 622.966 135.421 625.724 127.725ZM695.182 2.94266V196.477H747.468V2.94266H695.182ZM750.363 2.94266L824.736 196.477H881.467L956.946 2.94266H902.267L854.201 136.147L806.902 2.94266H750.363ZM804.687 6.07944L854.177 145.455L904.47 6.07944H952.355L879.324 193.34H826.891L754.929 6.07944H804.687ZM744.331 193.34H698.318V6.07944H744.331V193.34ZM1133.79 170.887L1133.78 170.899C1125.27 179.782 1115.01 186.792 1103.06 191.941L1103.05 191.945L1103.04 191.95C1091.21 196.941 1078.4 199.419 1064.64 199.419C1050.51 199.419 1037.18 196.85 1024.65 191.693L1024.64 191.69L1024.64 191.686C1012.35 186.551 1001.58 179.565 992.375 170.724L992.352 170.702L992.33 170.679C983.304 161.654 976.132 151.071 970.81 138.959L970.802 138.94L970.794 138.922C965.626 126.741 963.054 113.659 963.054 99.7097C963.054 85.7604 965.626 72.6786 970.794 60.4975L970.802 60.4791L970.81 60.4607C976.132 48.3478 983.307 37.8489 992.341 28.9966C1001.38 19.9604 1012.07 12.8744 1024.37 7.73299C1036.72 2.57183 1049.88 0 1063.83 0C1079.79 0 1095.03 3.30377 1109.53 9.90605C1124.07 16.3502 1135.91 25.5898 1144.99 37.6306L1146.75 39.9688L1109.63 72.1848L1107.6 69.49C1101.99 62.0004 1095.41 56.4547 1087.87 52.77L1087.86 52.7638L1087.85 52.7575C1080.45 49.0599 1072.46 47.2034 1063.83 47.2034C1057.14 47.2034 1050.9 48.5382 1045.09 51.1924C1039.41 53.8658 1034.5 57.5323 1030.33 62.2066L1030.31 62.2278L1030.29 62.2486C1026.15 66.7175 1022.88 72.2251 1020.51 78.8333L1020.5 78.8456L1020.5 78.8579C1018.14 85.2588 1016.95 92.2006 1016.95 99.7097C1016.95 107.387 1018.14 114.501 1020.49 121.075C1023.03 127.495 1026.48 133.026 1030.82 137.703C1035.17 142.388 1040.27 146.066 1046.13 148.748C1052.13 151.412 1058.55 152.751 1065.44 152.751C1075.34 152.751 1083.74 149.998 1090.82 144.571L1090.83 144.561L1090.84 144.55C1096.97 139.954 1101.3 134.358 1103.9 127.725H1058.29V82.6621H1160.87V98.9072C1160.87 113.173 1158.49 126.491 1153.7 138.832C1148.93 151.13 1142.3 161.823 1133.8 170.876L1133.79 170.887ZM1108.24 124.589C1107.95 125.656 1107.62 126.702 1107.25 127.725C1104.49 135.421 1099.65 141.865 1092.73 147.06C1085.06 152.945 1075.96 155.888 1065.44 155.888C1058.13 155.888 1051.26 154.461 1044.84 151.608C1038.6 148.754 1033.16 144.831 1028.52 139.837C1023.89 134.843 1020.23 128.958 1017.55 122.181C1015.06 115.226 1013.81 107.735 1013.81 99.7097C1013.81 91.8626 1015.06 84.5505 1017.55 77.7735C1020.05 70.8181 1023.53 64.9328 1027.99 60.1175C1032.45 55.1239 1037.71 51.2003 1043.77 48.3468C1050.01 45.4933 1056.7 44.0666 1063.83 44.0666C1072.93 44.0666 1081.4 46.0284 1089.25 49.9519C1096.41 53.4525 1102.72 58.5148 1108.17 65.1387C1108.83 65.9389 1109.48 66.762 1110.11 67.6079L1142.48 39.5188C1133.74 27.9265 1122.33 19.0093 1108.24 12.7673C1094.15 6.34696 1079.35 3.13678 1063.83 3.13678C1050.28 3.13678 1037.53 5.63359 1025.58 10.6272C1013.63 15.6208 1003.29 22.487 994.548 31.2259C985.809 39.7863 978.853 49.9519 973.681 61.7226C968.688 73.4932 966.191 86.1556 966.191 99.7097C966.191 113.264 968.688 125.926 973.681 137.697C978.853 149.468 985.809 159.722 994.548 168.461C1003.46 177.022 1013.9 183.799 1025.85 188.792C1037.97 193.786 1050.9 196.283 1064.64 196.283C1078.01 196.283 1090.41 193.875 1101.82 189.06C1113.41 184.066 1123.31 177.289 1131.52 168.729C1139.72 159.99 1146.14 149.646 1150.78 137.697C1155.41 125.748 1157.73 112.818 1157.73 98.9072V85.7989H1061.43V124.589H1108.24ZM1176.71 196.477V2.94266H1228.99V196.477H1176.71ZM1306.26 196.477L1231.89 2.94266H1288.43L1335.73 136.147L1383.79 2.94266H1438.47L1362.99 196.477H1306.26ZM1335.7 145.455L1286.21 6.07944H1236.46L1308.42 193.34H1360.85L1433.88 6.07944H1386L1335.7 145.455ZM1179.85 193.34H1225.86V6.07944H1179.85V193.34ZM1615.31 170.899L1615.32 170.887L1615.33 170.876C1623.83 161.823 1630.46 151.13 1635.23 138.832C1640.02 126.491 1642.4 113.173 1642.4 98.9072V82.6621H1539.82V127.725H1585.43C1582.83 134.358 1578.5 139.954 1572.37 144.55L1572.36 144.561L1572.34 144.571C1565.27 149.998 1556.86 152.751 1546.97 152.751C1540.08 152.751 1533.66 151.412 1527.66 148.748C1521.79 146.066 1516.7 142.388 1512.35 137.703C1508 133.026 1504.56 127.495 1502.02 121.075C1499.66 114.501 1498.47 107.387 1498.47 99.7097C1498.47 92.2006 1499.67 85.2588 1502.02 78.8579L1502.03 78.8456L1502.03 78.8333C1504.41 72.2251 1507.68 66.7175 1511.82 62.2486L1511.84 62.2278L1511.85 62.2066C1516.03 57.5323 1520.94 53.8658 1526.62 51.1924C1532.43 48.5382 1538.67 47.2034 1545.36 47.2034C1553.99 47.2034 1561.98 49.0599 1569.37 52.7575L1569.38 52.7638L1569.4 52.77C1576.93 56.4547 1583.51 62.0004 1589.13 69.49L1591.15 72.1848L1628.28 39.9688L1626.52 37.6306C1617.44 25.5898 1605.59 16.3502 1591.05 9.90605C1576.56 3.30377 1561.32 0 1545.36 0C1531.41 0 1518.25 2.57183 1505.9 7.73299C1493.59 12.8744 1482.91 19.9604 1473.87 28.9966C1464.83 37.8489 1457.66 48.3478 1452.34 60.4607L1452.33 60.4791L1452.32 60.4975C1447.15 72.6786 1444.58 85.7604 1444.58 99.7097C1444.58 113.659 1447.15 126.741 1452.32 138.922L1452.33 138.94L1452.34 138.959C1457.66 151.071 1464.83 161.654 1473.86 170.679L1473.88 170.702L1473.9 170.724C1483.11 179.565 1493.88 186.551 1506.16 191.686L1506.17 191.69L1506.18 191.693C1518.7 196.85 1532.04 199.419 1546.16 199.419C1559.92 199.419 1572.74 196.941 1584.57 191.95L1584.58 191.945L1584.59 191.941C1596.54 186.792 1606.79 179.782 1615.31 170.899ZM1588.78 127.725C1589.15 126.702 1589.48 125.656 1589.77 124.589H1542.95V85.7989H1639.26V98.9072C1639.26 112.818 1636.94 125.748 1632.3 137.697C1627.67 149.646 1621.25 159.99 1613.04 168.729C1604.84 177.289 1594.94 184.066 1583.35 189.06C1571.93 193.875 1559.54 196.283 1546.16 196.283C1532.43 196.283 1519.5 193.786 1507.37 188.792C1495.43 183.799 1484.99 177.022 1476.07 168.461C1467.34 159.722 1460.38 149.468 1455.21 137.697C1450.21 125.926 1447.72 113.264 1447.72 99.7097C1447.72 86.1556 1450.21 73.4932 1455.21 61.7226C1460.38 49.9519 1467.34 39.7863 1476.07 31.2259C1484.81 22.487 1495.16 15.6208 1507.11 10.6272C1519.06 5.63359 1531.81 3.13678 1545.36 3.13678C1560.88 3.13678 1575.68 6.34696 1589.77 12.7673C1603.86 19.0093 1615.27 27.9265 1624.01 39.5188L1591.64 67.6079C1591.01 66.762 1590.36 65.9389 1589.7 65.1387C1584.24 58.5148 1577.94 53.4525 1570.78 49.9519C1562.93 46.0284 1554.46 44.0666 1545.36 44.0666C1538.23 44.0666 1531.54 45.4933 1525.3 48.3468C1519.23 51.2003 1513.97 55.1239 1509.51 60.1175C1505.06 64.9328 1501.58 70.8181 1499.08 77.7735C1496.58 84.5505 1495.34 91.8626 1495.34 99.7097C1495.34 107.735 1496.58 115.226 1499.08 122.181C1501.76 128.958 1505.41 134.843 1510.05 139.837C1514.69 144.831 1520.13 148.754 1526.37 151.608C1532.79 154.461 1539.65 155.888 1546.97 155.888C1557.49 155.888 1566.58 152.945 1574.25 147.06C1581.18 141.865 1586.02 135.421 1588.78 127.725ZM1658.24 2.94266V196.477H1710.52V2.94266H1658.24ZM1713.42 2.94266L1787.79 196.477H1844.52L1920 2.94266H1865.32L1817.26 136.147L1769.96 2.94266H1713.42ZM1767.74 6.07944L1817.23 145.455L1867.52 6.07944H1915.41L1842.38 193.34H1789.95L1717.98 6.07944H1767.74ZM1707.39 193.34H1661.37V6.07944H1707.39V193.34ZM170.737 629.23L170.726 629.242C162.213 638.125 151.96 645.135 140.008 650.284L139.997 650.288L139.986 650.293C128.156 655.284 115.343 657.762 101.582 657.762C87.4598 657.762 74.1222 655.193 61.5983 650.036L61.5907 650.033L61.5831 650.029C49.2942 644.894 38.5306 637.908 29.3211 629.067L29.298 629.045L29.2753 629.022C20.2501 619.997 13.0776 609.414 7.75542 597.302L7.74736 597.283L7.73954 597.265C2.57179 585.084 0 572.002 0 558.053C0 544.103 2.57179 531.022 7.73954 518.841L7.74736 518.822L7.75542 518.804C13.0778 506.691 20.2529 496.192 29.2866 487.34C38.3257 478.303 49.0131 471.217 61.3156 466.076C73.6655 460.915 86.8301 458.343 100.78 458.343C116.738 458.343 131.979 461.647 146.473 468.249C161.012 474.693 172.857 483.933 181.934 495.974L183.697 498.312L146.572 530.528L144.55 527.833C138.933 520.343 132.353 514.798 124.816 511.113L124.803 511.107L124.791 511.101C117.396 507.403 109.407 505.546 100.78 505.546C94.084 505.546 87.8482 506.881 82.0362 509.535C76.3604 512.209 71.4461 515.875 67.2726 520.55L67.2537 520.571L67.2344 520.592C63.0966 525.06 59.8242 530.568 57.452 537.176L57.4476 537.189L57.4431 537.201C55.0848 543.602 53.8912 550.544 53.8912 558.053C53.8912 565.73 55.0817 572.844 57.4354 579.418C59.9755 585.838 63.4235 591.368 67.7664 596.046C72.1168 600.731 77.2128 604.409 83.076 607.091C89.0744 609.755 95.4995 611.094 102.385 611.094C112.281 611.094 120.69 608.341 127.762 602.914L127.775 602.904L127.789 602.893C133.918 598.297 138.249 592.701 140.848 586.068H95.2354V541.005H197.814V557.25C197.814 571.516 195.435 584.834 190.646 597.175C185.874 609.473 179.246 620.166 170.748 629.219L170.737 629.23ZM145.187 582.932C144.894 583.999 144.564 585.045 144.197 586.068C141.439 593.764 136.597 600.208 129.671 605.403C122.003 611.288 112.907 614.231 102.385 614.231C95.0728 614.231 88.2066 612.804 81.7862 609.951C75.5442 607.097 70.1047 603.174 65.4678 598.18C60.8309 593.186 57.1748 587.301 54.4997 580.524C52.0029 573.569 50.7545 566.078 50.7545 558.053C50.7545 550.206 52.0029 542.893 54.4997 536.116C56.9965 529.161 60.4742 523.276 64.9328 518.46C69.3913 513.467 74.6525 509.543 80.7161 506.69C86.9582 503.836 93.646 502.41 100.78 502.41C109.875 502.41 118.347 504.371 126.194 508.295C133.354 511.796 139.663 516.858 145.119 523.482C145.779 524.282 146.425 525.105 147.06 525.951L179.429 497.862C170.69 486.27 159.276 477.352 145.187 471.11C131.098 464.69 116.296 461.48 100.78 461.48C87.2257 461.48 74.4741 463.977 62.5251 468.97C50.5761 473.964 40.2322 480.83 31.4934 489.569C22.7546 498.129 15.7992 508.295 10.6272 520.066C5.63359 531.836 3.13678 544.499 3.13678 558.053C3.13678 571.607 5.63359 584.269 10.6272 596.04C15.7992 607.81 22.7546 618.065 31.4934 626.804C40.4105 635.365 50.8436 642.142 62.7926 647.135C74.92 652.129 87.8499 654.626 101.582 654.626C114.958 654.626 127.353 652.218 138.767 647.403C150.359 642.409 160.257 635.632 168.461 627.072C176.665 618.333 183.085 607.989 187.722 596.04C192.359 584.091 194.678 571.161 194.678 557.25V544.142H98.3721V582.932H145.187ZM213.655 654.82V461.286H265.941V654.82H213.655ZM343.209 654.82L268.836 461.286H325.375L372.674 594.49L420.74 461.286H475.419L399.94 654.82H343.209ZM372.65 603.798L323.16 464.422H273.402L345.364 651.683H397.797L470.828 464.422H422.943L372.65 603.798ZM216.791 651.683H262.804V464.422H216.791V651.683ZM1615.31 629.242L1615.32 629.23L1615.33 629.219C1623.83 620.166 1630.46 609.473 1635.23 597.175C1640.02 584.834 1642.4 571.516 1642.4 557.25V541.005H1539.82V586.068H1585.43C1582.83 592.701 1578.5 598.297 1572.37 602.893L1572.36 602.904L1572.34 602.914C1565.27 608.341 1556.86 611.094 1546.97 611.094C1540.08 611.094 1533.66 609.755 1527.66 607.091C1521.79 604.409 1516.7 600.731 1512.35 596.046C1508 591.368 1504.56 585.838 1502.02 579.418C1499.66 572.844 1498.47 565.73 1498.47 558.053C1498.47 550.544 1499.67 543.602 1502.02 537.201L1502.03 537.189L1502.03 537.176C1504.41 530.568 1507.68 525.06 1511.82 520.592L1511.84 520.571L1511.85 520.55C1516.03 515.875 1520.94 512.209 1526.62 509.535C1532.43 506.881 1538.67 505.546 1545.36 505.546C1553.99 505.546 1561.98 507.403 1569.37 511.101L1569.38 511.107L1569.4 511.113C1576.93 514.798 1583.51 520.343 1589.13 527.833L1591.15 530.528L1628.28 498.312L1626.52 495.974C1617.44 483.933 1605.59 474.693 1591.05 468.249C1576.56 461.647 1561.32 458.343 1545.36 458.343C1531.41 458.343 1518.25 460.915 1505.9 466.076C1493.59 471.217 1482.91 478.303 1473.87 487.34C1464.83 496.192 1457.66 506.691 1452.34 518.804L1452.33 518.822L1452.32 518.841C1447.15 531.022 1444.58 544.103 1444.58 558.053C1444.58 572.002 1447.15 585.084 1452.32 597.265L1452.33 597.283L1452.34 597.302C1457.66 609.414 1464.83 619.997 1473.86 629.022L1473.88 629.045L1473.9 629.067C1483.11 637.908 1493.88 644.894 1506.16 650.029L1506.17 650.033L1506.18 650.036C1518.7 655.193 1532.04 657.762 1546.16 657.762C1559.92 657.762 1572.74 655.284 1584.57 650.293L1584.58 650.288L1584.59 650.284C1596.54 645.135 1606.79 638.125 1615.31 629.242ZM1588.78 586.068C1589.15 585.045 1589.48 583.999 1589.77 582.932H1542.95V544.142H1639.26V557.25C1639.26 571.161 1636.94 584.091 1632.3 596.04C1627.67 607.989 1621.25 618.333 1613.04 627.072C1604.84 635.632 1594.94 642.409 1583.35 647.403C1571.93 652.218 1559.54 654.626 1546.16 654.626C1532.43 654.626 1519.5 652.129 1507.37 647.135C1495.43 642.142 1484.99 635.365 1476.07 626.804C1467.34 618.065 1460.38 607.81 1455.21 596.04C1450.21 584.269 1447.72 571.607 1447.72 558.053C1447.72 544.499 1450.21 531.836 1455.21 520.066C1460.38 508.295 1467.34 498.129 1476.07 489.569C1484.81 480.83 1495.16 473.964 1507.11 468.97C1519.06 463.977 1531.81 461.48 1545.36 461.48C1560.88 461.48 1575.68 464.69 1589.77 471.11C1603.86 477.352 1615.27 486.27 1624.01 497.862L1591.64 525.951C1591.01 525.105 1590.36 524.282 1589.7 523.482C1584.24 516.858 1577.94 511.796 1570.78 508.295C1562.93 504.371 1554.46 502.41 1545.36 502.41C1538.23 502.41 1531.54 503.836 1525.3 506.69C1519.23 509.543 1513.97 513.467 1509.51 518.46C1505.06 523.276 1501.58 529.161 1499.08 536.116C1496.58 542.893 1495.34 550.206 1495.34 558.053C1495.34 566.078 1496.58 573.569 1499.08 580.524C1501.76 587.301 1505.41 593.186 1510.05 598.18C1514.69 603.174 1520.13 607.097 1526.37 609.951C1532.79 612.804 1539.65 614.231 1546.97 614.231C1557.49 614.231 1566.58 611.288 1574.25 605.403C1581.18 600.208 1586.02 593.764 1588.78 586.068ZM1658.24 461.286V654.82H1710.52V461.286H1658.24ZM1713.42 461.286L1787.79 654.82H1844.52L1920 461.286H1865.32L1817.26 594.49L1769.96 461.286H1713.42ZM1767.74 464.422L1817.23 603.798L1867.52 464.422H1915.41L1842.38 651.683H1789.95L1717.98 464.422H1767.74ZM1707.39 651.683H1661.37V464.422H1707.39V651.683ZM1134.68 629.23L1134.67 629.242C1126.16 638.125 1115.91 645.135 1103.95 650.284L1103.94 650.288L1103.93 650.293C1092.1 655.284 1079.29 657.762 1065.53 657.762C1051.41 657.762 1038.07 655.193 1025.54 650.036L1025.54 650.033L1025.53 650.029C1013.24 644.894 1002.48 637.908 993.267 629.067L993.244 629.045L993.221 629.022C984.196 619.997 977.024 609.414 971.702 597.302L971.693 597.283L971.686 597.265C966.518 585.084 963.946 572.002 963.946 558.053C963.946 544.103 966.518 531.022 971.686 518.841L971.693 518.822L971.702 518.804C977.024 506.691 984.199 496.192 993.233 487.34C1002.27 478.303 1012.96 471.217 1025.26 466.076C1037.61 460.915 1050.78 458.343 1064.73 458.343C1080.68 458.343 1095.93 461.647 1110.42 468.249C1124.96 474.693 1136.8 483.933 1145.88 495.974L1147.64 498.312L1110.52 530.528L1108.5 527.833C1102.88 520.343 1096.3 514.798 1088.76 511.113L1088.75 511.107L1088.74 511.101C1081.34 507.403 1073.35 505.546 1064.73 505.546C1058.03 505.546 1051.79 506.881 1045.98 509.535C1040.31 512.209 1035.39 515.875 1031.22 520.55L1031.2 520.571L1031.18 520.592C1027.04 525.06 1023.77 530.568 1021.4 537.176L1021.39 537.189L1021.39 537.201C1019.03 543.602 1017.84 550.544 1017.84 558.053C1017.84 565.73 1019.03 572.844 1021.38 579.418C1023.92 585.838 1027.37 591.368 1031.71 596.046C1036.06 600.731 1041.16 604.409 1047.02 607.091C1053.02 609.755 1059.45 611.094 1066.33 611.094C1076.23 611.094 1084.64 608.341 1091.71 602.914L1091.72 602.904L1091.74 602.893C1097.86 598.297 1102.19 592.701 1104.79 586.068H1059.18V541.005H1161.76V557.25C1161.76 571.516 1159.38 584.834 1154.59 597.175C1149.82 609.473 1143.19 620.166 1134.69 629.219L1134.68 629.23ZM1109.13 582.932C1108.84 583.999 1108.51 585.045 1108.14 586.068C1105.39 593.764 1100.54 600.208 1093.62 605.403C1085.95 611.288 1076.85 614.231 1066.33 614.231C1059.02 614.231 1052.15 612.804 1045.73 609.951C1039.49 607.097 1034.05 603.174 1029.41 598.18C1024.78 593.186 1021.12 587.301 1018.45 580.524C1015.95 573.569 1014.7 566.078 1014.7 558.053C1014.7 550.206 1015.95 542.893 1018.45 536.116C1020.94 529.161 1024.42 523.276 1028.88 518.46C1033.34 513.467 1038.6 509.543 1044.66 506.69C1050.9 503.836 1057.59 502.41 1064.73 502.41C1073.82 502.41 1082.29 504.371 1090.14 508.295C1097.3 511.796 1103.61 516.858 1109.07 523.482C1109.72 524.282 1110.37 525.105 1111.01 525.951L1143.38 497.862C1134.64 486.27 1123.22 477.352 1109.13 471.11C1095.04 464.69 1080.24 461.48 1064.73 461.48C1051.17 461.48 1038.42 463.977 1026.47 468.97C1014.52 473.964 1004.18 480.83 995.439 489.569C986.701 498.129 979.745 508.295 974.573 520.066C969.58 531.836 967.083 544.499 967.083 558.053C967.083 571.607 969.58 584.269 974.573 596.04C979.745 607.81 986.701 618.065 995.439 626.804C1004.36 635.365 1014.79 642.142 1026.74 647.135C1038.87 652.129 1051.8 654.626 1065.53 654.626C1078.9 654.626 1091.3 652.218 1102.71 647.403C1114.31 642.409 1124.2 635.632 1132.41 627.072C1140.61 618.333 1147.03 607.989 1151.67 596.04C1156.31 584.091 1158.62 571.161 1158.62 557.25V544.142H1062.32V582.932H1109.13ZM1177.6 654.82V461.286H1229.89V654.82H1177.6ZM1307.15 654.82L1232.78 461.286H1289.32L1336.62 594.49L1384.69 461.286H1439.36L1363.89 654.82H1307.15ZM1336.6 603.798L1287.11 464.422H1237.35L1309.31 651.683H1361.74L1434.77 464.422H1386.89L1336.6 603.798ZM1180.74 651.683H1226.75V464.422H1180.74V651.683ZM647.377 629.242L647.388 629.23L647.399 629.219C655.897 620.166 662.526 609.473 667.298 597.175C672.087 584.834 674.466 571.516 674.466 557.25V541.005H571.887V586.068H617.499C614.9 592.701 610.569 598.297 604.441 602.893L604.427 602.904L604.413 602.914C597.341 608.341 588.933 611.094 579.036 611.094C572.151 611.094 565.726 609.755 559.727 607.091C553.864 604.409 548.768 600.731 544.418 596.046C540.075 591.368 536.627 585.838 534.087 579.418C531.733 572.844 530.543 565.73 530.543 558.053C530.543 550.544 531.736 543.602 534.094 537.201L534.099 537.189L534.103 537.176C536.475 530.568 539.748 525.06 543.886 520.592L543.905 520.571L543.924 520.55C548.097 515.875 553.012 512.209 558.688 509.535C564.5 506.881 570.735 505.546 577.431 505.546C586.058 505.546 594.047 507.403 601.442 511.101L601.455 511.107L601.467 511.113C609.004 514.798 615.585 520.343 621.202 527.833L623.223 530.528L660.348 498.312L658.585 495.974C649.508 483.933 637.664 474.693 623.124 468.249C608.63 461.647 593.389 458.343 577.431 458.343C563.481 458.343 550.317 460.915 537.967 466.076C525.664 471.217 514.977 478.303 505.938 487.34C496.904 496.192 489.729 506.691 484.407 518.804L484.399 518.822L484.391 518.841C479.223 531.022 476.651 544.103 476.651 558.053C476.651 572.002 479.223 585.084 484.391 597.265L484.399 597.283L484.407 597.302C489.729 609.414 496.901 619.997 505.927 629.022L505.949 629.045L505.972 629.067C515.182 637.908 525.946 644.894 538.234 650.029L538.242 650.033L538.25 650.036C550.774 655.193 564.111 657.762 578.234 657.762C591.995 657.762 604.808 655.284 616.638 650.293L616.648 650.288L616.659 650.284C628.612 645.135 638.865 638.125 647.377 629.242ZM620.849 586.068C621.216 585.045 621.546 583.999 621.839 582.932H575.023V544.142H671.329V557.25C671.329 571.161 669.01 584.091 664.373 596.04C659.737 607.989 653.316 618.333 645.112 627.072C636.909 635.632 627.011 642.409 615.418 647.403C604.004 652.218 591.609 654.626 578.234 654.626C564.501 654.626 551.571 652.129 539.444 647.135C527.495 642.142 517.062 635.365 508.145 626.804C499.406 618.065 492.451 607.81 487.279 596.04C482.285 584.269 479.788 571.607 479.788 558.053C479.788 544.499 482.285 531.836 487.279 520.066C492.451 508.295 499.406 498.129 508.145 489.569C516.884 480.83 527.227 473.964 539.176 468.97C551.125 463.977 563.877 461.48 577.431 461.48C592.947 461.48 607.749 464.69 621.839 471.11C635.928 477.352 647.342 486.27 656.081 497.862L623.711 525.951C623.077 525.105 622.43 524.282 621.771 523.482C616.314 516.858 610.005 511.796 602.845 508.295C594.998 504.371 586.527 502.41 577.431 502.41C570.297 502.41 563.609 503.836 557.367 506.69C551.304 509.543 546.043 513.467 541.584 518.46C537.125 523.276 533.648 529.161 531.151 536.116C528.654 542.893 527.406 550.206 527.406 558.053C527.406 566.078 528.654 573.569 531.151 580.524C533.826 587.301 537.482 593.186 542.119 598.18C546.756 603.174 552.196 607.097 558.438 609.951C564.858 612.804 571.724 614.231 579.036 614.231C589.558 614.231 598.654 611.288 606.323 605.403C613.249 600.208 618.091 593.764 620.849 586.068ZM690.306 461.286V654.82H742.592V461.286H690.306ZM745.488 461.286L819.86 654.82H876.592L952.07 461.286H897.392L849.325 594.49L802.026 461.286H745.488ZM799.811 464.422L849.302 603.798L899.594 464.422H947.48L874.448 651.683H822.015L750.054 464.422H799.811ZM739.455 651.683H693.443V464.422H739.455V651.683ZM170.737 858.402L170.726 858.414C162.213 867.297 151.96 874.307 140.008 879.456L139.997 879.46L139.986 879.465C128.156 884.456 115.343 886.934 101.582 886.934C87.4598 886.934 74.1222 884.365 61.5983 879.208L61.5907 879.205L61.5831 879.201C49.2942 874.066 38.5306 867.08 29.3211 858.239L29.298 858.217L29.2753 858.194C20.2501 849.169 13.0776 838.586 7.75542 826.474L7.74736 826.455L7.73954 826.437C2.57179 814.256 0 801.174 0 787.225C0 773.275 2.57179 760.194 7.73954 748.012L7.74736 747.994L7.75542 747.976C13.0778 735.863 20.2529 725.364 29.2866 716.512C38.3257 707.475 49.0131 700.389 61.3156 695.248C73.6655 690.087 86.8301 687.515 100.78 687.515C116.738 687.515 131.979 690.819 146.473 697.421C161.012 703.865 172.857 713.105 181.934 725.146L183.697 727.484L146.572 759.7L144.55 757.005C138.933 749.515 132.353 743.97 124.816 740.285L124.803 740.279L124.791 740.273C117.396 736.575 109.407 734.718 100.78 734.718C94.084 734.718 87.8482 736.053 82.0362 738.707C76.3604 741.381 71.4461 745.047 67.2726 749.722L67.2537 749.743L67.2344 749.764C63.0966 754.232 59.8242 759.74 57.452 766.348L57.4476 766.361L57.4431 766.373C55.0848 772.774 53.8912 779.716 53.8912 787.225C53.8912 794.902 55.0817 802.016 57.4354 808.59C59.9755 815.01 63.4235 820.54 67.7664 825.217C72.1168 829.902 77.2128 833.581 83.076 836.263C89.0744 838.926 95.4995 840.266 102.385 840.266C112.281 840.266 120.69 837.513 127.762 832.086L127.775 832.076L127.789 832.065C133.918 827.469 138.249 821.873 140.848 815.24H95.2354V770.177H197.814V786.422C197.814 800.688 195.435 814.006 190.646 826.347C185.874 838.644 179.246 849.338 170.748 858.391L170.737 858.402ZM145.187 812.104C144.894 813.171 144.564 814.217 144.197 815.24C141.439 822.936 136.597 829.38 129.671 834.575C122.003 840.46 112.907 843.403 102.385 843.403C95.0728 843.403 88.2066 841.976 81.7862 839.123C75.5442 836.269 70.1047 832.346 65.4678 827.352C60.8309 822.358 57.1748 816.473 54.4997 809.696C52.0029 802.741 50.7545 795.25 50.7545 787.225C50.7545 779.378 52.0029 772.065 54.4997 765.288C56.9965 758.333 60.4742 752.448 64.9328 747.632C69.3913 742.639 74.6525 738.715 80.7161 735.862C86.9582 733.008 93.646 731.582 100.78 731.582C109.875 731.582 118.347 733.543 126.194 737.467C133.354 740.967 139.663 746.03 145.119 752.654C145.779 753.454 146.425 754.277 147.06 755.123L179.429 727.034C170.69 715.441 159.276 706.524 145.187 700.282C131.098 693.862 116.296 690.652 100.78 690.652C87.2257 690.652 74.4741 693.149 62.5251 698.142C50.5761 703.136 40.2322 710.002 31.4934 718.741C22.7546 727.301 15.7992 737.467 10.6272 749.238C5.63359 761.008 3.13678 773.671 3.13678 787.225C3.13678 800.779 5.63359 813.441 10.6272 825.212C15.7992 836.982 22.7546 847.237 31.4934 855.976C40.4105 864.536 50.8436 871.314 62.7926 876.307C74.92 881.301 87.8499 883.798 101.582 883.798C114.958 883.798 127.353 881.39 138.767 876.575C150.359 871.581 160.257 864.804 168.461 856.244C176.665 847.505 183.085 837.161 187.722 825.212C192.359 813.263 194.678 800.333 194.678 786.422V773.314H98.3721V812.104H145.187ZM213.655 690.458H265.941V883.992H213.655V690.458ZM268.836 690.458H325.375L372.674 823.662L420.74 690.458H475.419L399.94 883.992H343.209L268.836 690.458ZM372.65 832.97L323.16 693.594H273.402L345.364 880.855H397.797L470.828 693.594H422.943L372.65 832.97ZM216.791 880.855H262.804V693.594H216.791V880.855ZM654.313 858.414L654.324 858.402L654.335 858.391C662.833 849.338 669.461 838.644 674.234 826.347C679.023 814.006 681.402 800.688 681.402 786.422V770.177H578.823V815.24H624.435C621.836 821.873 617.505 827.469 611.377 832.065L611.363 832.076L611.349 832.086C604.277 837.513 595.869 840.266 585.972 840.266C579.087 840.266 572.662 838.926 566.663 836.263C560.8 833.581 555.704 829.902 551.354 825.217C547.011 820.54 543.563 815.01 541.023 808.59C538.669 802.016 537.479 794.902 537.479 787.225C537.479 779.716 538.672 772.774 541.03 766.373L541.035 766.361L541.039 766.348C543.411 759.74 546.684 754.232 550.822 749.764L550.841 749.743L550.86 749.722C555.033 745.047 559.948 741.381 565.624 738.707C571.436 736.053 577.671 734.718 584.367 734.718C592.994 734.718 600.983 736.575 608.378 740.273L608.391 740.279L608.403 740.285C615.94 743.97 622.521 749.515 628.138 757.005L630.159 759.7L667.284 727.484L665.521 725.146C656.444 713.105 644.6 703.865 630.06 697.421C615.566 690.819 600.325 687.515 584.367 687.515C570.417 687.515 557.253 690.087 544.903 695.248C532.6 700.389 521.913 707.475 512.874 716.512C503.84 725.364 496.665 735.863 491.343 747.976L491.335 747.994L491.327 748.012C486.159 760.194 483.587 773.275 483.587 787.225C483.587 801.174 486.159 814.256 491.327 826.437L491.335 826.455L491.343 826.474C496.665 838.586 503.837 849.169 512.863 858.194L512.885 858.217L512.908 858.239C522.118 867.08 532.882 874.066 545.17 879.201L545.178 879.205L545.186 879.208C557.71 884.365 571.047 886.934 585.17 886.934C598.93 886.934 611.744 884.456 623.574 879.465L623.584 879.46L623.595 879.456C635.548 874.307 645.801 867.297 654.313 858.414ZM627.785 815.24C628.152 814.217 628.482 813.171 628.775 812.104H581.959V773.314H678.265V786.422C678.265 800.333 675.946 813.263 671.31 825.212C666.673 837.161 660.252 847.505 652.048 856.244C643.845 864.804 633.947 871.581 622.354 876.575C610.94 881.39 598.545 883.798 585.17 883.798C571.437 883.798 558.507 881.301 546.38 876.307C534.431 871.314 523.998 864.536 515.081 855.976C506.342 847.237 499.387 836.982 494.215 825.212C489.221 813.441 486.724 800.779 486.724 787.225C486.724 773.671 489.221 761.008 494.215 749.238C499.387 737.467 506.342 727.301 515.081 718.741C523.82 710.002 534.163 703.136 546.112 698.142C558.061 693.149 570.813 690.652 584.367 690.652C599.883 690.652 614.685 693.862 628.775 700.282C642.864 706.524 654.278 715.441 663.017 727.034L630.647 755.123C630.013 754.277 629.366 753.454 628.707 752.654C623.25 746.03 616.941 740.967 609.781 737.467C601.934 733.543 593.463 731.582 584.367 731.582C577.233 731.582 570.545 733.008 564.303 735.862C558.24 738.715 552.979 742.639 548.52 747.632C544.062 752.448 540.584 758.333 538.087 765.288C535.59 772.065 534.342 779.378 534.342 787.225C534.342 795.25 535.59 802.741 538.087 809.696C540.762 816.473 544.418 822.358 549.055 827.352C553.692 832.346 559.132 836.269 565.374 839.123C571.794 841.976 578.66 843.403 585.972 843.403C596.494 843.403 605.59 840.46 613.259 834.575C620.185 829.38 625.027 822.936 627.785 815.24ZM749.528 690.458H697.242V883.992H749.528V690.458ZM808.962 690.458H752.424L826.796 883.992H883.528L959.006 690.458H904.328L856.261 823.662L808.962 690.458ZM806.747 693.594L856.238 832.97L906.53 693.594H954.416L881.384 880.855H828.951L756.99 693.594H806.747ZM746.391 880.855H700.379V693.594H746.391V880.855ZM1133.79 858.402L1133.78 858.413C1125.27 867.296 1115.01 874.306 1103.06 879.455L1103.05 879.46L1103.04 879.464C1091.21 884.455 1078.4 886.934 1064.64 886.934C1050.51 886.934 1037.18 884.364 1024.65 879.207L1024.64 879.204L1024.64 879.201C1012.35 874.065 1001.58 867.08 992.375 858.238L992.352 858.216L992.33 858.194C983.304 849.168 976.132 838.586 970.81 826.473L970.802 826.455L970.794 826.436C965.626 814.255 963.054 801.174 963.054 787.224C963.054 773.275 965.626 760.193 970.794 748.012L970.802 747.994L970.81 747.975C976.132 735.862 983.307 725.363 992.341 716.511C1001.38 707.475 1012.07 700.389 1024.37 695.247C1036.72 690.086 1049.88 687.514 1063.83 687.514C1079.79 687.514 1095.03 690.818 1109.53 697.421C1124.07 703.865 1135.91 713.104 1144.99 725.145L1146.75 727.483L1109.63 759.699L1107.6 757.004C1101.99 749.515 1095.41 743.969 1087.87 740.284L1087.86 740.278L1087.85 740.272C1080.45 736.574 1072.46 734.718 1063.83 734.718C1057.14 734.718 1050.9 736.053 1045.09 738.707C1039.41 741.38 1034.5 745.047 1030.33 749.721L1030.31 749.742L1030.29 749.763C1026.15 754.232 1022.88 759.74 1020.51 766.348L1020.5 766.36L1020.5 766.372C1018.14 772.773 1016.95 779.715 1016.95 787.224C1016.95 794.901 1018.14 802.015 1020.49 808.589C1023.03 815.009 1026.48 820.54 1030.82 825.217C1035.17 829.902 1040.27 833.58 1046.13 836.263C1052.13 838.926 1058.55 840.266 1065.44 840.266C1075.34 840.266 1083.74 837.513 1090.82 832.086L1090.83 832.075L1090.84 832.065C1096.97 827.469 1101.3 821.872 1103.9 815.24H1058.29V770.177H1160.87V786.422C1160.87 800.687 1158.49 814.005 1153.7 826.346C1148.93 838.644 1142.3 849.338 1133.8 858.39L1133.79 858.402ZM1108.24 812.103C1107.95 813.171 1107.62 814.216 1107.25 815.24C1104.49 822.935 1099.65 829.38 1092.73 834.574C1085.06 840.46 1075.96 843.402 1065.44 843.402C1058.13 843.402 1051.26 841.976 1044.84 839.122C1038.6 836.269 1033.16 832.345 1028.52 827.351C1023.89 822.358 1020.23 816.472 1017.55 809.695C1015.06 802.74 1013.81 795.25 1013.81 787.224C1013.81 779.377 1015.06 772.065 1017.55 765.288C1020.05 758.333 1023.53 752.447 1027.99 747.632C1032.45 742.638 1037.71 738.715 1043.77 735.861C1050.01 733.008 1056.7 731.581 1063.83 731.581C1072.93 731.581 1081.4 733.543 1089.25 737.466C1096.41 740.967 1102.72 746.029 1108.17 752.653C1108.83 753.453 1109.48 754.276 1110.11 755.122L1142.48 727.033C1133.74 715.441 1122.33 706.524 1108.24 700.282C1094.15 693.861 1079.35 690.651 1063.83 690.651C1050.28 690.651 1037.53 693.148 1025.58 698.142C1013.63 703.135 1003.29 710.002 994.548 718.74C985.809 727.301 978.853 737.466 973.681 749.237C968.688 761.008 966.191 773.67 966.191 787.224C966.191 800.778 968.688 813.441 973.681 825.211C978.853 836.982 985.809 847.237 994.548 855.976C1003.46 864.536 1013.9 871.313 1025.85 876.307C1037.97 881.3 1050.9 883.797 1064.64 883.797C1078.01 883.797 1090.41 881.389 1101.82 876.574C1113.41 871.581 1123.31 864.804 1131.52 856.243C1139.72 847.504 1146.14 837.16 1150.78 825.211C1155.41 813.262 1157.73 800.332 1157.73 786.422V773.313H1061.43V812.103H1108.24ZM1176.71 690.457H1228.99V883.991H1176.71V690.457ZM1231.89 690.457H1288.43L1335.73 823.662L1383.79 690.457H1438.47L1362.99 883.991H1306.26L1231.89 690.457ZM1335.7 832.969L1286.21 693.594H1236.46L1308.42 880.854H1360.85L1433.88 693.594H1386L1335.7 832.969ZM1179.85 880.854H1225.86V693.594H1179.85V880.854ZM1615.31 858.413L1615.32 858.402L1615.33 858.39C1623.83 849.338 1630.46 838.644 1635.23 826.346C1640.02 814.005 1642.4 800.687 1642.4 786.422V770.177H1539.82V815.24H1585.43C1582.83 821.872 1578.5 827.469 1572.37 832.065L1572.36 832.075L1572.34 832.086C1565.27 837.513 1556.86 840.266 1546.97 840.266C1540.08 840.266 1533.66 838.926 1527.66 836.263C1521.79 833.58 1516.7 829.902 1512.35 825.217C1508 820.54 1504.56 815.009 1502.02 808.589C1499.66 802.015 1498.47 794.901 1498.47 787.224C1498.47 779.715 1499.67 772.773 1502.02 766.372L1502.03 766.36L1502.03 766.348C1504.41 759.74 1507.68 754.232 1511.82 749.763L1511.84 749.742L1511.85 749.721C1516.03 745.047 1520.94 741.38 1526.62 738.707C1532.43 736.053 1538.67 734.718 1545.36 734.718C1553.99 734.718 1561.98 736.574 1569.37 740.272L1569.38 740.278L1569.4 740.284C1576.93 743.969 1583.51 749.515 1589.13 757.004L1591.15 759.699L1628.28 727.483L1626.52 725.145C1617.44 713.104 1605.59 703.865 1591.05 697.421C1576.56 690.818 1561.32 687.514 1545.36 687.514C1531.41 687.514 1518.25 690.086 1505.9 695.247C1493.59 700.389 1482.91 707.475 1473.87 716.511C1464.83 725.363 1457.66 735.862 1452.34 747.975L1452.33 747.994L1452.32 748.012C1447.15 760.193 1444.58 773.275 1444.58 787.224C1444.58 801.174 1447.15 814.255 1452.32 826.436L1452.33 826.455L1452.34 826.473C1457.66 838.586 1464.83 849.168 1473.86 858.194L1473.88 858.216L1473.9 858.238C1483.11 867.08 1493.88 874.065 1506.16 879.201L1506.17 879.204L1506.18 879.207C1518.7 884.364 1532.04 886.934 1546.16 886.934C1559.92 886.934 1572.74 884.455 1584.57 879.464L1584.58 879.46L1584.59 879.455C1596.54 874.306 1606.79 867.296 1615.31 858.413ZM1588.78 815.24C1589.15 814.216 1589.48 813.171 1589.77 812.103H1542.95V773.313H1639.26V786.422C1639.26 800.332 1636.94 813.262 1632.3 825.211C1627.67 837.16 1621.25 847.504 1613.04 856.243C1604.84 864.804 1594.94 871.581 1583.35 876.574C1571.93 881.389 1559.54 883.797 1546.16 883.797C1532.43 883.797 1519.5 881.3 1507.37 876.307C1495.43 871.313 1484.99 864.536 1476.07 855.976C1467.34 847.237 1460.38 836.982 1455.21 825.211C1450.21 813.441 1447.72 800.778 1447.72 787.224C1447.72 773.67 1450.21 761.008 1455.21 749.237C1460.38 737.466 1467.34 727.301 1476.07 718.74C1484.81 710.002 1495.16 703.135 1507.11 698.142C1519.06 693.148 1531.81 690.651 1545.36 690.651C1560.88 690.651 1575.68 693.861 1589.77 700.282C1603.86 706.524 1615.27 715.441 1624.01 727.033L1591.64 755.122C1591.01 754.276 1590.36 753.453 1589.7 752.653C1584.24 746.029 1577.94 740.967 1570.78 737.466C1562.93 733.543 1554.46 731.581 1545.36 731.581C1538.23 731.581 1531.54 733.008 1525.3 735.861C1519.23 738.715 1513.97 742.638 1509.51 747.632C1505.06 752.447 1501.58 758.333 1499.08 765.288C1496.58 772.065 1495.34 779.377 1495.34 787.224C1495.34 795.25 1496.58 802.74 1499.08 809.695C1501.76 816.472 1505.41 822.358 1510.05 827.351C1514.69 832.345 1520.13 836.269 1526.37 839.122C1532.79 841.976 1539.65 843.402 1546.97 843.402C1557.49 843.402 1566.58 840.46 1574.25 834.574C1581.18 829.38 1586.02 822.935 1588.78 815.24ZM1710.52 690.457H1658.24V883.991H1710.52V690.457ZM1769.96 690.457H1713.42L1787.79 883.991H1844.52L1920 690.457H1865.32L1817.26 823.662L1769.96 690.457ZM1767.74 693.594L1817.23 832.969L1867.52 693.594H1915.41L1842.38 880.854H1789.95L1717.98 693.594H1767.74ZM1707.39 880.854H1661.37V693.594H1707.39V880.854ZM170.737 1087.57L170.726 1087.58C162.213 1096.47 151.96 1103.48 140.008 1108.63L139.997 1108.63L139.986 1108.64C128.156 1113.63 115.343 1116.1 101.582 1116.1C87.4598 1116.1 74.1222 1113.54 61.5983 1108.38L61.5907 1108.38L61.5831 1108.37C49.2942 1103.24 38.5306 1096.25 29.3211 1087.41L29.298 1087.39L29.2753 1087.36C20.2501 1078.34 13.0776 1067.76 7.75542 1055.64L7.74736 1055.63L7.73954 1055.61C2.57179 1043.43 0 1030.34 0 1016.4C0 1002.45 2.57179 989.364 7.73954 977.183L7.74736 977.164L7.75542 977.146C13.0778 965.033 20.2529 954.534 29.2866 945.682C38.3257 936.646 49.0131 929.56 61.3156 924.418C73.6655 919.257 86.8301 916.685 100.78 916.685C116.738 916.685 131.979 919.989 146.473 926.591C161.012 933.036 172.857 942.275 181.934 954.316L183.697 956.654L146.572 988.87L144.55 986.175C138.933 978.686 132.353 973.14 124.816 969.455L124.803 969.449L124.791 969.443C117.396 965.745 109.407 963.889 100.78 963.889C94.084 963.889 87.8482 965.224 82.0362 967.878C76.3604 970.551 71.4461 974.218 67.2726 978.892L67.2537 978.913L67.2344 978.934C63.0966 983.403 59.8242 988.911 57.452 995.519L57.4476 995.531L57.4431 995.543C55.0848 1001.94 53.8912 1008.89 53.8912 1016.4C53.8912 1024.07 55.0817 1031.19 57.4354 1037.76C59.9755 1044.18 63.4235 1049.71 67.7664 1054.39C72.1168 1059.07 77.2128 1062.75 83.076 1065.43C89.0744 1068.1 95.4995 1069.44 102.385 1069.44C112.281 1069.44 120.69 1066.68 127.762 1061.26L127.775 1061.25L127.789 1061.24C133.918 1056.64 138.249 1051.04 140.848 1044.41H95.2354V999.348H197.814V1015.59C197.814 1029.86 195.435 1043.18 190.646 1055.52C185.874 1067.81 179.246 1078.51 170.748 1087.56L170.737 1087.57ZM145.187 1041.27C144.894 1042.34 144.564 1043.39 144.197 1044.41C141.439 1052.11 136.597 1058.55 129.671 1063.75C122.003 1069.63 112.907 1072.57 102.385 1072.57C95.0728 1072.57 88.2066 1071.15 81.7862 1068.29C75.5442 1065.44 70.1047 1061.52 65.4678 1056.52C60.8309 1051.53 57.1748 1045.64 54.4997 1038.87C52.0029 1031.91 50.7545 1024.42 50.7545 1016.4C50.7545 1008.55 52.0029 1001.24 54.4997 994.459C56.9965 987.504 60.4742 981.618 64.9328 976.803C69.3913 971.809 74.6525 967.886 80.7161 965.032C86.9582 962.179 93.646 960.752 100.78 960.752C109.875 960.752 118.347 962.714 126.194 966.637C133.354 970.138 139.663 975.2 145.119 981.824C145.779 982.624 146.425 983.447 147.06 984.293L179.429 956.204C170.69 944.612 159.276 935.695 145.187 929.453C131.098 923.032 116.296 919.822 100.78 919.822C87.2257 919.822 74.4741 922.319 62.5251 927.313C50.5761 932.306 40.2322 939.172 31.4934 947.911C22.7546 956.472 15.7992 966.637 10.6272 978.408C5.63359 990.179 3.13678 1002.84 3.13678 1016.4C3.13678 1029.95 5.63359 1042.61 10.6272 1054.38C15.7992 1066.15 22.7546 1076.41 31.4934 1085.15C40.4105 1093.71 50.8436 1100.48 62.7926 1105.48C74.92 1110.47 87.8499 1112.97 101.582 1112.97C114.958 1112.97 127.353 1110.56 138.767 1105.75C150.359 1100.75 160.257 1093.97 168.461 1085.41C176.665 1076.68 183.085 1066.33 187.722 1054.38C192.359 1042.43 194.678 1029.5 194.678 1015.59V1002.48H98.3721V1041.27H145.187ZM213.655 919.628H265.941V1113.16H213.655V919.628ZM268.836 919.628H325.375L372.674 1052.83L420.74 919.628H475.419L399.94 1113.16H343.209L268.836 919.628ZM372.65 1062.14L323.16 922.765H273.402L345.364 1110.03H397.797L470.828 922.765H422.943L372.65 1062.14ZM216.791 1110.03H262.804V922.765H216.791V1110.03ZM652.253 1087.58L652.264 1087.57L652.275 1087.56C660.773 1078.51 667.401 1067.81 672.174 1055.52C676.962 1043.18 679.341 1029.86 679.341 1015.59V999.348H576.762V1044.41H622.375C619.776 1051.04 615.445 1056.64 609.316 1061.24L609.302 1061.25L609.289 1061.26C602.217 1066.68 593.808 1069.44 583.912 1069.44C577.027 1069.44 570.601 1068.1 564.603 1065.43C558.74 1062.75 553.644 1059.07 549.293 1054.39C544.951 1049.71 541.503 1044.18 538.962 1037.76C536.609 1031.19 535.418 1024.07 535.418 1016.4C535.418 1008.89 536.612 1001.94 538.97 995.543L538.975 995.531L538.979 995.519C541.351 988.911 544.624 983.403 548.761 978.934L548.781 978.913L548.8 978.892C552.973 974.218 557.887 970.551 563.563 967.878C569.375 965.224 575.611 963.889 582.307 963.889C590.934 963.889 598.923 965.745 606.318 969.443L606.33 969.449L606.343 969.455C613.88 973.14 620.46 978.686 626.077 986.175L628.099 988.87L665.224 956.654L663.461 954.316C654.384 942.275 642.539 933.036 628 926.591C613.506 919.989 598.265 916.685 582.307 916.685C568.357 916.685 555.193 919.257 542.843 924.418C530.54 929.56 519.853 936.646 510.814 945.682C501.78 954.534 494.605 965.033 489.282 977.146L489.274 977.164L489.267 977.183C484.099 989.364 481.527 1002.45 481.527 1016.4C481.527 1030.34 484.099 1043.43 489.267 1055.61L489.274 1055.63L489.282 1055.64C494.605 1067.76 501.777 1078.34 510.802 1087.36L510.825 1087.39L510.848 1087.41C520.058 1096.25 530.821 1103.24 543.11 1108.37L543.118 1108.38L543.125 1108.38C555.649 1113.54 568.987 1116.1 583.109 1116.1C596.87 1116.1 609.683 1113.63 621.513 1108.64L621.524 1108.63L621.535 1108.63C633.487 1103.48 643.74 1096.47 652.253 1087.58ZM625.724 1044.41C626.091 1043.39 626.421 1042.34 626.714 1041.27H579.899V1002.48H676.205V1015.59C676.205 1029.5 673.886 1042.43 669.249 1054.38C664.612 1066.33 658.192 1076.68 649.988 1085.41C641.784 1093.97 631.886 1100.75 620.294 1105.75C608.88 1110.56 596.485 1112.97 583.109 1112.97C569.377 1112.97 556.447 1110.47 544.32 1105.48C532.371 1100.48 521.938 1093.71 513.02 1085.15C504.282 1076.41 497.326 1066.15 492.154 1054.38C487.161 1042.61 484.664 1029.95 484.664 1016.4C484.664 1002.84 487.161 990.179 492.154 978.408C497.326 966.637 504.282 956.472 513.02 947.911C521.759 939.172 532.103 932.306 544.052 927.313C556.001 922.319 568.753 919.822 582.307 919.822C597.823 919.822 612.625 923.032 626.714 929.453C640.803 935.695 652.217 944.612 660.956 956.204L628.587 984.293C627.953 983.447 627.306 982.624 626.646 981.824C621.19 975.2 614.881 970.138 607.721 966.637C599.874 962.714 591.402 960.752 582.307 960.752C575.173 960.752 568.485 962.179 562.243 965.032C556.18 967.886 550.918 971.809 546.46 976.803C542.001 981.618 538.523 987.504 536.027 994.459C533.53 1001.24 532.281 1008.55 532.281 1016.4C532.281 1024.42 533.53 1031.91 536.027 1038.87C538.702 1045.64 542.358 1051.53 546.995 1056.52C551.632 1061.52 557.071 1065.44 563.313 1068.29C569.734 1071.15 576.6 1072.57 583.912 1072.57C594.434 1072.57 603.53 1069.63 611.198 1063.75C618.124 1058.55 622.966 1052.11 625.724 1044.41ZM747.468 919.628H695.182V1113.16H747.468V919.628ZM806.902 919.628H750.363L824.736 1113.16H881.467L956.946 919.628H902.267L854.201 1052.83L806.902 919.628ZM804.687 922.765L854.177 1062.14L904.47 922.765H952.355L879.324 1110.03H826.891L754.929 922.765H804.687ZM744.331 1110.03H698.318V922.765H744.331V1110.03ZM1133.79 1087.57L1133.78 1087.58C1125.27 1096.47 1115.01 1103.48 1103.06 1108.63L1103.05 1108.63L1103.04 1108.64C1091.21 1113.63 1078.4 1116.1 1064.64 1116.1C1050.51 1116.1 1037.18 1113.54 1024.65 1108.38L1024.64 1108.38L1024.64 1108.37C1012.35 1103.24 1001.58 1096.25 992.375 1087.41L992.352 1087.39L992.33 1087.36C983.304 1078.34 976.132 1067.76 970.81 1055.64L970.802 1055.63L970.794 1055.61C965.626 1043.43 963.054 1030.34 963.054 1016.4C963.054 1002.45 965.626 989.364 970.794 977.183L970.802 977.164L970.81 977.146C976.132 965.033 983.307 954.534 992.341 945.682C1001.38 936.646 1012.07 929.56 1024.37 924.418C1036.72 919.257 1049.88 916.685 1063.83 916.685C1079.79 916.685 1095.03 919.989 1109.53 926.591C1124.07 933.036 1135.91 942.275 1144.99 954.316L1146.75 956.654L1109.63 988.87L1107.6 986.175C1101.99 978.686 1095.41 973.14 1087.87 969.455L1087.86 969.449L1087.85 969.443C1080.45 965.745 1072.46 963.889 1063.83 963.889C1057.14 963.889 1050.9 965.224 1045.09 967.878C1039.41 970.551 1034.5 974.218 1030.33 978.892L1030.31 978.913L1030.29 978.934C1026.15 983.403 1022.88 988.911 1020.51 995.519L1020.5 995.531L1020.5 995.543C1018.14 1001.94 1016.95 1008.89 1016.95 1016.4C1016.95 1024.07 1018.14 1031.19 1020.49 1037.76C1023.03 1044.18 1026.48 1049.71 1030.82 1054.39C1035.17 1059.07 1040.27 1062.75 1046.13 1065.43C1052.13 1068.1 1058.55 1069.44 1065.44 1069.44C1075.34 1069.44 1083.74 1066.68 1090.82 1061.26L1090.83 1061.25L1090.84 1061.24C1096.97 1056.64 1101.3 1051.04 1103.9 1044.41H1058.29V999.348H1160.87V1015.59C1160.87 1029.86 1158.49 1043.18 1153.7 1055.52C1148.93 1067.81 1142.3 1078.51 1133.8 1087.56L1133.79 1087.57ZM1108.24 1041.27C1107.95 1042.34 1107.62 1043.39 1107.25 1044.41C1104.49 1052.11 1099.65 1058.55 1092.73 1063.75C1085.06 1069.63 1075.96 1072.57 1065.44 1072.57C1058.13 1072.57 1051.26 1071.15 1044.84 1068.29C1038.6 1065.44 1033.16 1061.52 1028.52 1056.52C1023.89 1051.53 1020.23 1045.64 1017.55 1038.87C1015.06 1031.91 1013.81 1024.42 1013.81 1016.4C1013.81 1008.55 1015.06 1001.24 1017.55 994.459C1020.05 987.504 1023.53 981.618 1027.99 976.803C1032.45 971.809 1037.71 967.886 1043.77 965.032C1050.01 962.179 1056.7 960.752 1063.83 960.752C1072.93 960.752 1081.4 962.714 1089.25 966.637C1096.41 970.138 1102.72 975.2 1108.17 981.824C1108.83 982.624 1109.48 983.447 1110.11 984.293L1142.48 956.204C1133.74 944.612 1122.33 935.695 1108.24 929.453C1094.15 923.032 1079.35 919.822 1063.83 919.822C1050.28 919.822 1037.53 922.319 1025.58 927.313C1013.63 932.306 1003.29 939.172 994.548 947.911C985.809 956.472 978.853 966.637 973.681 978.408C968.688 990.179 966.191 1002.84 966.191 1016.4C966.191 1029.95 968.688 1042.61 973.681 1054.38C978.853 1066.15 985.809 1076.41 994.548 1085.15C1003.46 1093.71 1013.9 1100.48 1025.85 1105.48C1037.97 1110.47 1050.9 1112.97 1064.64 1112.97C1078.01 1112.97 1090.41 1110.56 1101.82 1105.75C1113.41 1100.75 1123.31 1093.97 1131.52 1085.41C1139.72 1076.68 1146.14 1066.33 1150.78 1054.38C1155.41 1042.43 1157.73 1029.5 1157.73 1015.59V1002.48H1061.43V1041.27H1108.24ZM1176.71 919.628H1228.99V1113.16H1176.71V919.628ZM1231.89 919.628H1288.43L1335.73 1052.83L1383.79 919.628H1438.47L1362.99 1113.16H1306.26L1231.89 919.628ZM1335.7 1062.14L1286.21 922.765H1236.46L1308.42 1110.03H1360.85L1433.88 922.765H1386L1335.7 1062.14ZM1179.85 1110.03H1225.86V922.765H1179.85V1110.03ZM1615.31 1087.58L1615.32 1087.57L1615.33 1087.56C1623.83 1078.51 1630.46 1067.81 1635.23 1055.52C1640.02 1043.18 1642.4 1029.86 1642.4 1015.59V999.348H1539.82V1044.41H1585.43C1582.83 1051.04 1578.5 1056.64 1572.37 1061.24L1572.36 1061.25L1572.34 1061.26C1565.27 1066.68 1556.86 1069.44 1546.97 1069.44C1540.08 1069.44 1533.66 1068.1 1527.66 1065.43C1521.79 1062.75 1516.7 1059.07 1512.35 1054.39C1508 1049.71 1504.56 1044.18 1502.02 1037.76C1499.66 1031.19 1498.47 1024.07 1498.47 1016.4C1498.47 1008.89 1499.67 1001.94 1502.02 995.543L1502.03 995.531L1502.03 995.519C1504.41 988.911 1507.68 983.403 1511.82 978.934L1511.84 978.913L1511.85 978.892C1516.03 974.218 1520.94 970.551 1526.62 967.878C1532.43 965.224 1538.67 963.889 1545.36 963.889C1553.99 963.889 1561.98 965.745 1569.37 969.443L1569.38 969.449L1569.4 969.455C1576.93 973.14 1583.51 978.686 1589.13 986.175L1591.15 988.87L1628.28 956.654L1626.52 954.316C1617.44 942.275 1605.59 933.036 1591.05 926.591C1576.56 919.989 1561.32 916.685 1545.36 916.685C1531.41 916.685 1518.25 919.257 1505.9 924.418C1493.59 929.56 1482.91 936.646 1473.87 945.682C1464.83 954.534 1457.66 965.033 1452.34 977.146L1452.33 977.164L1452.32 977.183C1447.15 989.364 1444.58 1002.45 1444.58 1016.4C1444.58 1030.34 1447.15 1043.43 1452.32 1055.61L1452.33 1055.63L1452.34 1055.64C1457.66 1067.76 1464.83 1078.34 1473.86 1087.36L1473.88 1087.39L1473.9 1087.41C1483.11 1096.25 1493.88 1103.24 1506.16 1108.37L1506.17 1108.38L1506.18 1108.38C1518.7 1113.54 1532.04 1116.1 1546.16 1116.1C1559.92 1116.1 1572.74 1113.63 1584.57 1108.64L1584.58 1108.63L1584.59 1108.63C1596.54 1103.48 1606.79 1096.47 1615.31 1087.58ZM1588.78 1044.41C1589.15 1043.39 1589.48 1042.34 1589.77 1041.27H1542.95V1002.48H1639.26V1015.59C1639.26 1029.5 1636.94 1042.43 1632.3 1054.38C1627.67 1066.33 1621.25 1076.68 1613.04 1085.41C1604.84 1093.97 1594.94 1100.75 1583.35 1105.75C1571.93 1110.56 1559.54 1112.97 1546.16 1112.97C1532.43 1112.97 1519.5 1110.47 1507.37 1105.48C1495.43 1100.48 1484.99 1093.71 1476.07 1085.15C1467.34 1076.41 1460.38 1066.15 1455.21 1054.38C1450.21 1042.61 1447.72 1029.95 1447.72 1016.4C1447.72 1002.84 1450.21 990.179 1455.21 978.408C1460.38 966.637 1467.34 956.472 1476.07 947.911C1484.81 939.172 1495.16 932.306 1507.11 927.313C1519.06 922.319 1531.81 919.822 1545.36 919.822C1560.88 919.822 1575.68 923.032 1589.77 929.453C1603.86 935.695 1615.27 944.612 1624.01 956.204L1591.64 984.293C1591.01 983.447 1590.36 982.624 1589.7 981.824C1584.24 975.2 1577.94 970.138 1570.78 966.637C1562.93 962.714 1554.46 960.752 1545.36 960.752C1538.23 960.752 1531.54 962.179 1525.3 965.032C1519.23 967.886 1513.97 971.809 1509.51 976.803C1505.06 981.618 1501.58 987.504 1499.08 994.459C1496.58 1001.24 1495.34 1008.55 1495.34 1016.4C1495.34 1024.42 1496.58 1031.91 1499.08 1038.87C1501.76 1045.64 1505.41 1051.53 1510.05 1056.52C1514.69 1061.52 1520.13 1065.44 1526.37 1068.29C1532.79 1071.15 1539.65 1072.57 1546.97 1072.57C1557.49 1072.57 1566.58 1069.63 1574.25 1063.75C1581.18 1058.55 1586.02 1052.11 1588.78 1044.41ZM1710.52 919.628H1658.24V1113.16H1710.52V919.628ZM1769.96 919.628H1713.42L1787.79 1113.16H1844.52L1920 919.628H1865.32L1817.26 1052.83L1769.96 919.628ZM1767.74 922.765L1817.23 1062.14L1867.52 922.765H1915.41L1842.38 1110.03H1789.95L1717.98 922.765H1767.74ZM1707.39 1110.03H1661.37V922.765H1707.39V1110.03Z" fill="#F6F3FF"/>
<path d="M1099.78 92.5542C1105.37 88.0571 1110.66 83.2113 1116.1 78.5359L1125.15 69.4857L1126.7 67.5642C1134.32 58.1832 1142.53 49.2195 1149.46 39.3474C1158.3 26.7364 1165.9 13.5672 1172.26 2.39898e-05L1113.45 2.0618e-05C1106.75 10.759 1099 20.9846 1090.21 30.5094C1062.52 60.5121 1028.96 80.8283 989.541 91.458C989.2 91.5964 988.897 91.8162 988.66 92.0984C988.423 92.3806 988.259 92.7164 988.182 93.0767C988.09 99.9073 988.128 106.74 988.12 113.574L988.085 144.965C988.383 144.956 988.681 144.931 988.976 144.889C1030.12 136.322 1067.06 118.877 1099.78 92.5542Z" fill="#E7E1FF"/>
<path d="M168.955 223.233C168.539 223.218 167.856 223.921 167.721 224.414C159.231 255.094 145.252 281.665 125.707 304L186.733 304C200.729 281.32 210.902 256.321 217.32 229.075C217.769 227.167 218.148 225.238 218.571 223.274C218.235 223.238 218.071 223.204 217.911 223.204C201.585 223.164 185.266 223.174 168.955 223.233Z" fill="#E7E1FF"/>
</g>
<defs>
<clipPath id="clip0_9107_10724">
<rect width="1200" height="304" rx="16" fill="white"/>
</clipPath>
</defs>
</svg>
